<?xml version="1.0" encoding="utf-8"?>
<!-- Generator: Adobe Illustrator 18.1.1, SVG Export Plug-In . SVG Version: 6.00 Build 0)  -->
<svg version="1.1" id="レイヤー_1" xmlns="http://www.w3.org/2000/svg" xmlns:xlink="http://www.w3.org/1999/xlink" x="0px"
	 y="0px" viewBox="0 0 512 512" enable-background="new 0 0 512 512" xml:space="preserve">
<g>
	<path fill="#999999" d="M384,256l93.7-54.1V128l-64-37L320,145.1V37L256,0l-64,37v108.1L98.3,91l-64,37v73.9L128,256l-93.7,54.1
		V384l64,37l93.7-54.1V475l64,37l64-37V366.9l93.7,54.1l64-37v-73.9L384,256z"/>
	<path fill="#FFFFFF" d="M208,465.8V339.1L98.3,402.5l-48-27.7v-55.5L160,256L50.3,192.7v-55.5l48-27.7L208,172.9V46.2l48-27.7
		l48,27.7v126.7l109.7-63.4l48,27.7v55.5L352,256l109.7,63.3v55.5l-48,27.7L304,339.1v126.7l-48,27.7L208,465.8z"/>
</g>
</svg>
